<svg width="26" height="25" viewBox="0 0 26 25" fill="none" xmlns="http://www.w3.org/2000/svg">
<path d="M21.6211 18.6328C21.8555 18.1641 22.0605 17.6855 22.2363 17.1973C22.4121 16.709 22.5 16.1719 22.5 15.5859C22.5 14.5703 22.2461 13.6328 21.7383 12.7734C21.2305 11.9141 20.5469 11.2305 19.6875 10.7227C18.8281 10.2148 17.8906 9.96094 16.875 9.96094C15.8203 9.96094 14.8633 10.2148 14.0039 10.7227C13.1445 11.2305 12.4707 11.9141 11.9824 12.7734C11.4941 13.6328 11.25 14.5703 11.25 15.5859C11.25 16.6406 11.4941 17.5977 11.9824 18.457C12.4707 19.3164 13.1445 19.9902 14.0039 20.4785C14.8633 20.9668 15.8203 21.2109 16.875 21.2109C17.4219 21.2109 17.9492 21.1328 18.457 20.9766C18.9648 20.8203 19.4336 20.6055 19.8633 20.332L23.8477 24.375L25.6055 22.6172L21.6211 18.6328ZM16.875 18.75C15.9766 18.75 15.2246 18.4473 14.6191 17.8418C14.0137 17.2363 13.7109 16.4844 13.7109 15.5859C13.7109 14.7266 14.0137 13.9941 14.6191 13.3887C15.2246 12.7832 15.9766 12.4805 16.875 12.4805C17.7344 12.4805 18.4668 12.7832 19.0723 13.3887C19.6777 13.9941 19.9805 14.7266 19.9805 15.5859C19.9805 16.4844 19.6777 17.2363 19.0723 17.8418C18.4668 18.4473 17.7344 18.75 16.875 18.75ZM12.4805 22.5V24.9609C10.7617 24.9609 9.15039 24.6387 7.64648 23.9941C6.14258 23.3496 4.81445 22.4512 3.66211 21.2988C2.50977 20.1465 1.61133 18.8184 0.966797 17.3145C0.322266 15.8105 0 14.1992 0 12.4805C0 10.7617 0.322266 9.15039 0.966797 7.64648C1.61133 6.14258 2.50977 4.81445 3.66211 3.66211C4.81445 2.50977 6.14258 1.61133 7.64648 0.966797C9.15039 0.322266 10.7617 0 12.4805 0C14.0039 0 15.4395 0.244141 16.7871 0.732422C18.1348 1.2207 19.3555 1.92383 20.4492 2.8418C21.543 3.75977 22.4609 4.82422 23.2031 6.03516C23.9453 7.24609 24.4531 8.55469 24.7266 9.96094H22.1484C21.7578 8.4375 21.0352 7.08008 19.9805 5.88867C18.9258 4.69727 17.6758 3.80859 16.2305 3.22266V3.75C16.2305 4.41406 15.9863 4.99023 15.498 5.47852C15.0098 5.9668 14.4141 6.21094 13.7109 6.21094H11.25V8.73047C11.25 9.08203 11.123 9.375 10.8691 9.60938C10.6152 9.84375 10.3125 9.96094 9.96094 9.96094H7.5V12.4805H9.96094V16.2305H8.73047L2.75391 10.2539C2.67578 10.6055 2.60742 10.9668 2.54883 11.3379C2.49023 11.709 2.46094 12.0898 2.46094 12.4805C2.46094 13.8477 2.72461 15.1367 3.25195 16.3477C3.7793 17.5586 4.50195 18.623 5.41992 19.541C6.33789 20.459 7.40234 21.1816 8.61328 21.709C9.82422 22.2363 11.1133 22.5 12.4805 22.5Z" fill="#0066FF"/>
</svg>
